<svg id="Ebene_1" xmlns="http://www.w3.org/2000/svg" viewBox="0 0 456.1 139.3"><style>.st0{opacity:.2}.st1{fill:#142e44}.st2{fill:#8399b0}</style><path class="st1" d="M74.7 28.6v-9.2h10.9v9.2H74.7zM57.2 8.5h-4.1V3.1c.2-1 1-1.7 2.1-1.7 1 0 1.8.7 2 1.7v5.4zM24.7 28.6v-9.2h10.9v9.2H24.7zm62.6-2.7v-6.4H90v-4.4h-4.4v2.8H74.7v-2.8h-4.4v4.4h2.8v9.1h-4.7v-2.8h-2.8V7.2h2.7V2.8H64v2.7h-5.4V2.9C58.3 1.2 56.9 0 55.2 0s-3.1 1.2-3.4 2.9v2.7h-5.5V2.8H42v4.4h2.7v18.7H42v2.8h-4.7v-9.1H40v-4.4h-4.4V18H24.7v-2.8h-4.4v4.4h2.8V26h-2.8v4.4h23.2v-2.8h2.8V7.2h5.5v2.7h6.7V7.2H64v20.3h2.8v2.8H90v-4.4h-2.7zM101.5 72.3l6-9.4-4.3-9.1-5.4 1.3.7-18.1h-1.3l-.7 19.8 6-1.6 3.5 7.6-5.1 8-5.3-1.1-5.2 16.9 5.1 1.7-2.8 11.6-11.5.4-1.8-3.1-14.2 5.8 1.6 4.3-11.6 7.7-11.8-7.7 1.7-4.3-14.3-5.9-1.7 3.1-11.3-.3-3-11.6 5-1.9-5.2-16.8-5.2 1.2-5.1-8.1 3.5-7.5 6 1.6-.7-19.8h-1.3l.7 18.2-5.4-1.5-4.2 9.1 6 9.4 4.9-1.1 4.5 14.6-5 1.8 3.5 13.7 13 .3 1.6-2.8 12 5-1.5 4.1 13.3 8.7 13.1-8.7-1.5-4.1 12.1-4.9 1.5 2.8 13.3-.5L97 87.5l-5-1.7 4.5-14.6z"/><path class="st1" d="M99.7 37l-.6 16.5 4.8-1.2 5 10.7-6.8 10.7-4.7-1L93.6 85l4.9 1.7-3.8 15.6-15 .6-1.4-2.5-9.8 4 1.4 3.9-14.7 9.7-14.9-9.7 1.5-3.9-9.8-4.1-1.4 2.5-14.8-.4-4-15.7 4.9-1.8-3.8-12.3-4.6 1.1-6.9-10.8 5-10.7 4.7 1.3-.6-16.5H9.3l.5 14.8-4.2-1.1L0 63l7.7 12.1 4.3-1 3.1 10-4.8 1.9 4.5 17.6 16.5.5 1.2-2.2 7.7 3.2-1.5 3.7 16.5 10.8 16.2-10.8-1.3-3.6 7.7-3.2 1.2 2.2 16.7-.6 4.3-17.8-4.9-1.6 3.1-10 4.5.9 7.7-12-5.8-12.3-4.1 1L101 37z"/><path class="st1" d="M20.7 50.1l.6 12.1h7.2V50.1zM29.6 62.2h12v-12h-12v12zm1.5-10.6h9.1v9.1h-9.1v-9.1zM82.2 50.1v12.1h7.1v-1.5h-5.7v-9.1h6.1l.1-1.5zM25.1 76.4l3.4 11.9V76.4zM42.8 76.4h12v12h-12zM69.1 76.4h12v12h-12zM29.6 88.5h12v-12h-12v12zm1.5-10.6h9.1V87h-9.1v-9.1zM82.2 76.4v12.1l1.4-5.2v-5.4h1.5l.4-1.5zM55.9 88.5h12v-12h-12v12zm1.4-10.6h9.1V87h-9.1v-9.1zM29.6 63.3h12v12h-12zM82.2 63.3v12h3.7l3.3-12zM21.4 63.3l.4 1.4H27v9.2h-2.6l.4 1.4h3.7v-12zM29.6 37h12v12h-12zM82.2 37v12h7.6l.5-12zM42.8 50.1h12v12h-12zM69.1 50.1h12v12h-12zM55.9 62.2h12v-12h-12v12zm1.4-10.6h9.1v9.1h-9.1v-9.1zM55.9 63.3h12v12h-12zM42.8 75.3h12v-12h-12v12zm1.4-10.6h9.1v9.1h-9.1v-9.1zM69.1 75.3h12v-12h-12v12zm1.4-10.6h9.1v9.1h-9.1v-9.1zM55.9 37h12v12h-12zM42.8 49h12V37h-12v12zm1.4-10.6h9.1v9.1h-9.1v-9.1zM69.1 49h12V37h-12v12zm1.4-10.6h9.1v9.1h-9.1v-9.1zM20.1 37l.1 1.4H27v9.2h-6.4V49h7.9V37zM29.6 89.6l12 5.4v-5.4zM55.9 89.6v11.2l12-5.4v-5.8zM42.8 89.6v5.9l1.4.6V91h9.1v9.1l1.5.7V89.6zM69.1 89.6v5.3l1.4-.6V91h7.3l3.2-1.4z"/><path class="st2" d="M451.9 123.6c1.3 0 2.1 1.1 2.1 2.4 0 .3-.1.5-.6.5-1.4 0-2.7.1-4 .1.3-2.1 1.4-3 2.5-3m3.6 7.2c-.8.8-1.7 1.2-2.7 1.2-1.6 0-3.5-1.3-3.5-4.5 2.8-.1 5.7-.3 6.1-.4.4-.1.5-.3.5-.8 0-1.8-1.6-3.6-3.5-3.6-1.2 0-2.5.6-3.5 1.7s-1.6 2.5-1.6 4.1c0 2.7 1.7 5 4.6 5 .7 0 2.4-.4 3.8-2.3l-.2-.4zm-14.3-5.6v-2.6c-1.1.5-2.2.8-3.3 1v.5c1.3.2 1.5.3 1.5 1.8v4.9c0 1.6-.2 1.7-1.6 1.8v.6h5.4v-.6c-1.8-.1-1.9-.3-1.9-1.8v-4.3c.5-1.3 1.3-2 1.9-2 .4 0 .7.1 1 .5.1.1.4.2.6 0 .4-.2.8-.7.8-1.2 0-.6-.6-1.2-1.4-1.2-1.3.1-2.3 1.4-3 2.6zm-6.3 8v-.6c-1.4-.1-1.6-.3-1.6-1.8v-4.1c0-2.8-1.3-4-3.2-4-1.3 0-2.5.9-3.4 1.7v-7.9c-.9.3-2.3.7-3.5.8v.5c1.6.1 1.6.3 1.6 1.7v11.2c0 1.6-.2 1.7-1.6 1.8v.6h5v-.6c-1.4-.1-1.5-.3-1.5-1.8v-5.6c.7-.8 1.6-1.2 2.4-1.2 1.6 0 2.3 1 2.3 2.9v3.9c0 1.5-.2 1.7-1.6 1.8v.6h5.1zm-17.9-9.6c1.3 0 2.1 1.1 2.1 2.4 0 .3-.1.5-.6.5-1.4 0-2.7.1-4 .1.4-2.1 1.5-3 2.5-3m3.6 7.2c-.8.8-1.7 1.2-2.7 1.2-1.6 0-3.5-1.3-3.5-4.5 2.8-.1 5.7-.3 6.1-.4.4-.1.5-.3.5-.8 0-1.8-1.6-3.6-3.5-3.6-1.2 0-2.5.6-3.5 1.7s-1.6 2.5-1.6 4.1c0 2.7 1.7 5 4.6 5 .7 0 2.4-.4 3.8-2.3l-.2-.4zm-10.1 2.4v-.6c-1.5-.1-1.7-.3-1.7-1.8v-14.3c-.8.3-2.3.7-3.5.8v.6c1.5.1 1.6.2 1.6 1.8v11.1c0 1.6-.2 1.7-1.7 1.8v.6h5.3zm-7.9-7.6c-.1-.6-.3-2-.5-2.5-.5-.2-1.1-.4-2.1-.4-2.2 0-3.6 1.4-3.6 3 0 1.8 1.5 2.6 2.9 3.2 1.2.5 1.9 1.1 1.9 2.1s-.8 1.6-1.7 1.6c-1.4 0-2.5-1.4-2.9-2.9l-.6.3c0 .8.2 2.4.4 2.8.4.4 1.5.8 2.7.8 1.9 0 3.9-1.1 3.9-3.2 0-1.6-1.2-2.5-3-3.2-1.1-.4-2-1-2-2 0-.9.6-1.6 1.5-1.6 1.2 0 2 .9 2.4 2.3l.7-.3zm-9.2 6.8l-.2-.6c-.3.2-.9.4-1.5.4s-1.4-.4-1.4-2.3v-6h2.5c.3-.2.4-.7.1-.9h-2.7v-3.2h-.3l-1.5 1.6v1.7h-1.1l-.6.7.1.2h1.6v6.8c0 1.9.8 2.8 2.3 2.8.2 0 .6-.1 1-.3l1.7-.9zm-14.6-9.4l-.6.7.1.2h1.6v6.9c0 1.6-.2 1.7-1.7 1.8v.6h5.6v-.6c-1.9-.2-2-.3-2-2v-6.8h2.5c.3-.1.4-.7.2-.9h-2.8v-.9c0-2 .2-3.1.5-3.6.3-.4.6-.7 1.2-.7.8 0 1.4.4 1.9.9.2.2.4.2.6.1.2-.2.4-.4.4-.6.1-.3.1-.6-.1-.8-.4-.4-1.1-.8-1.9-.8-.9.1-1.8.5-2.6 1.3-1.3 1.1-1.6 2.2-1.8 2.8-.2.5-.3 1.2-.3 1.9v.5h-.8zm-6.9 8.3c-.4.4-1.3.8-1.9.8-.7 0-1.7-.6-1.7-1.8 0-.8.5-1.3 1.4-1.7.5-.2 1.6-.7 2.1-1v3.7zm3.7 1l-.2-.6c-.2.1-.6.3-.8.3-.4 0-.8-.4-.8-1.4v-4.4c0-1.2-.2-2.2-1.1-2.9-.5-.4-1.2-.6-1.9-.6-1.3.3-2.9 1.2-3.5 1.6-.4.3-.8.6-.8.9 0 .5.6 1 1 1 .3 0 .6-.2.7-.5.2-.7.4-1.2.7-1.6.2-.3.6-.5 1.1-.5 1.2 0 2 1 2 2.7v.4c-.5.4-2.2 1.1-3.6 1.5-1.3.4-1.9 1.2-1.9 2.3 0 1.5 1.2 2.9 2.8 2.9.7 0 1.8-.9 2.8-1.5.1.4.3.7.6 1.1.3.2.8.4 1.1.4l1.8-1.1zm-11.8.9v-.6c-1.4-.1-1.6-.3-1.6-1.8v-4.1c0-2.8-1.3-4-3.2-4-1.3 0-2.5.9-3.4 1.7v-7.9c-.9.3-2.3.7-3.5.8v.5c1.6.1 1.6.3 1.6 1.7v11.2c0 1.6-.2 1.7-1.6 1.8v.6h5v-.6c-1.4-.1-1.5-.3-1.5-1.8v-5.6c.7-.8 1.6-1.2 2.4-1.2 1.6 0 2.3 1 2.3 2.9v3.9c0 1.5-.2 1.7-1.6 1.8v.6h5.1zm-14-2.6c-1.1 1-1.9 1.3-2.9 1.3-1.3 0-3.6-1.1-3.6-4.4 0-2.5 1.4-3.8 2.9-3.8.8 0 1.6.3 2.4 1 .2.2.3.3.4.3.3 0 .8-.5.8-1 0-.3-.1-.5-.4-.7-.4-.3-1.2-.6-2.1-.6-.9 0-2.3.4-3.6 1.3-1.6 1.2-2.4 2.8-2.4 4.6 0 2.5 1.7 4.9 4.7 4.9 1.4 0 3-1 4-2.4l-.2-.5zm-11.6-5c-.1-.6-.3-2-.5-2.5-.5-.2-1.1-.4-2.1-.4-2.2 0-3.6 1.4-3.6 3 0 1.8 1.5 2.6 2.9 3.2 1.2.5 1.9 1.1 1.9 2.1s-.8 1.6-1.7 1.6c-1.4 0-2.5-1.4-2.9-2.9l-.6.1c0 .8.2 2.4.4 2.8.4.4 1.5.8 2.7.8 1.9 0 3.9-1.1 3.9-3.2 0-1.6-1.2-2.5-3-3.2-1.1-.4-2-1-2-2 0-.9.6-1.6 1.5-1.6 1.2 0 2 .9 2.4 2.3l.7-.1zm-9.1 6.8l-.2-.6c-.3.2-.9.4-1.5.4s-1.4-.4-1.4-2.3v-6h2.5c.3-.2.4-.7.1-.9H326v-3.2h-.3l-1.5 1.6v1.7h-1.1l-.6.7.1.2h1.6v6.8c0 1.9.8 2.8 2.3 2.8.2 0 .6-.1 1-.3l1.6-.9zm-13.3-7.2v-2.6c-1.1.5-2.2.8-3.3 1v.5c1.3.2 1.5.3 1.5 1.8v4.9c0 1.6-.2 1.7-1.6 1.8v.6h5.4v-.6c-1.8-.1-1.9-.3-1.9-1.8v-4.3c.5-1.3 1.3-2 1.9-2 .4 0 .7.1 1 .5.1.1.4.2.6 0 .4-.2.8-.7.8-1.2 0-.6-.6-1.2-1.4-1.2-1.3.1-2.3 1.4-3 2.6zm-6.2 8v-.6c-1.5-.1-1.7-.3-1.7-1.9v-8.1c-1 .4-2.1.7-3.3.9v.6c1.4.2 1.5.3 1.5 1.8v4.8c0 1.6-.2 1.7-1.6 1.9v.6h5.1zm-2.8-12.6c.7 0 1.2-.6 1.2-1.2 0-.7-.5-1.2-1.2-1.2-.6 0-1.2.5-1.2 1.2.1.7.6 1.2 1.2 1.2m-4.7 2.4h-4.3v.6c1.5.2 1.7.4 1.4 1.6-.4 1.7-1.1 3.8-1.6 5.4-1-2.5-2-5-2.8-7.5h-.6c-1 2.7-1.9 5.1-2.7 7.4-.6-1.8-1.2-3.7-1.7-5.5-.4-1.1-.2-1.2 1.2-1.4v-.6h-4.9v.6c1.1.2 1.3.3 1.8 1.6 1 2.8 1.9 5.6 2.7 8.4h.7c.9-2.6 1.9-5 2.8-7.3 1 2.5 1.9 4.8 2.9 7.3h.7c1.1-3.2 2.1-6.3 2.8-8.2.5-1.3.7-1.6 1.9-1.8v-.6zm-18.8 2.6c-.1-.6-.3-2-.5-2.5-.5-.2-1.1-.4-2.1-.4-2.2 0-3.6 1.4-3.6 3 0 1.8 1.5 2.6 2.9 3.2 1.2.5 1.9 1.1 1.9 2.1s-.8 1.6-1.7 1.6c-1.4 0-2.5-1.4-2.9-2.9l-.6.1c0 .8.2 2.4.4 2.8.4.4 1.5.8 2.7.8 1.9 0 3.9-1.1 3.9-3.2 0-1.6-1.2-2.5-3-3.2-1.1-.4-2-1-2-2 0-.9.6-1.6 1.5-1.6 1.2 0 2 .9 2.4 2.3l.7-.1zm-8.8 7.6v-.6c-.9 0-1.5-.4-2.4-1.3-.8-.8-3.2-3.6-3.6-4.3 1-1.2 1.4-1.6 2-2.2.9-.9 1.4-1.1 3-1.4v-.6l-4.8.2v.6c1.1.1 1.2.3.7 1-.4.6-1.2 1.6-1.7 2.1-.4.4-.8.7-1.5.8v-11.1c-.9.3-2.3.7-3.4.8v.5c1.4.1 1.6.3 1.6 1.8v11.1c0 1.5-.1 1.7-1.7 1.8v.6h5.3v-.6c-1.5-.1-1.7-.3-1.7-1.8V128c.2 0 .3-.1.4-.1.2 0 .4.1.7.5 1.3 1.6 2.8 3.5 3.9 4.7l3.2.1zm-14.2 0v-.6c-1.5-.1-1.7-.3-1.7-1.8v-14.3c-.8.3-2.3.7-3.5.8v.6c1.5.1 1.6.2 1.6 1.8v11.1c0 1.6-.2 1.7-1.7 1.8v.6h5.3zm-12.8-9.7c2 0 3.2 2.2 3.2 5 0 3.2-1.2 4.3-2.7 4.3-1.9 0-3.2-2.2-3.2-5.2 0-2.7 1.3-4.1 2.7-4.1m.3-.8c-2.1 0-5.2 1.8-5.2 5.6 0 2.6 1.9 5.2 5.2 5.2 2.3 0 5.1-1.8 5.1-5.6 0-2.9-2.2-5.2-5.1-5.2m-5.5-4.7H237v.7c1.9.2 2 .4 1.6 1.8-.8 2.4-2.5 6.9-3.7 9.9-1.6-4-3.3-8.6-3.9-10.3-.4-1-.3-1.2 1.4-1.4v-.7h-5.8v.7c1.4.1 1.8.3 2.4 2.1 1.4 3.4 3.3 8.5 4.9 12.8h.7c1.8-4.8 4.3-10.8 4.9-12.4.9-2.1 1.2-2.3 2.8-2.5v-.7zm-29.4 15.5c1 0 1.7.1 2.3.3.7.3 1.1.9 1.1 1.7 0 1.5-1.2 2.6-3.4 2.6-1.7 0-3.1-1-3.1-2.2 0-.7.5-1.3 1.1-1.8.3-.5.8-.6 2-.6m-.6-10.1c1.3 0 2.2 1.3 2.2 3.2 0 1.9-.9 2.8-2 2.8-1.3 0-2.2-1.3-2.2-3.2s1-2.8 2-2.8m5.7-.5c-.8.1-2 .3-3.2.3-.7-.4-1.5-.6-2.3-.6-1.8 0-4.2 1.2-4.2 3.9 0 1.6 1 2.7 2.1 3.2-.4.5-1.1 1.1-2.1 1.4 0 .2 0 .6.3 1 .3.5.9 1 1.7 1.3-.6.4-1.5 1.2-2 1.6-.4.4-.6.8-.6 1.3 0 1.3 1.5 2.9 4.1 2.9 3.1 0 5.9-2.3 5.9-4.7 0-2.3-1.9-2.8-3.4-2.8h-2.5c-1.1 0-1.5-.4-1.5-.9 0-.3.4-.8.7-1 .4 0 .8.1 1.2.1 2 0 4.1-1.2 4.1-3.8 0-.8-.3-1.6-.7-2.1l1.3.1c.4-.2.8-.8 1.1-1.2zm-12.5 10.3v-.6c-1.4-.1-1.5-.2-1.5-1.8v-4.5c0-2.3-1.2-3.6-3-3.6-.7 0-1.3.3-2 .7-.6.4-1.1.8-1.6 1.1v-1.9c-1 .5-2.1.8-3.3 1v.5c1.3.2 1.4.3 1.4 1.8v4.9c0 1.6-.1 1.7-1.7 1.8v.6h5.1v-.6c-1.4-.1-1.5-.2-1.5-1.8v-5.5c.7-.6 1.6-1.2 2.6-1.2 1.6 0 2.1 1.1 2.1 2.7v3.9c0 1.6-.2 1.8-1.6 2v.6h5zm-14.2-1.1h-.7c-.9 0-1.1-.2-1.1-1.4v-7.9c-1.2.3-2.5.4-3.7.4v.5c1.7.2 1.8.3 1.8 1.7v5.5c-.8.8-1.7 1.1-2.5 1.1-1.1 0-2.1-.6-2.1-2.7v-3.2c0-1.6 0-2.7.1-3.4-1.1.2-2.3.4-3.4.4v.5c1.3.3 1.4.4 1.4 1.6v4.6c0 2.5 1.3 3.5 2.9 3.5.6 0 1.1-.2 1.8-.6.7-.4 1.2-.8 1.7-1.2v1.7l.1.1c1.2-.4 2.4-.7 3.5-.8v-.4zm-13.3 1.1v-.6c-1.5-.1-1.7-.3-1.7-1.8v-14.3c-.8.3-2.3.7-3.5.8v.6c1.5.1 1.6.2 1.6 1.8v11.1c0 1.6-.2 1.7-1.7 1.8v.6h5.3zm-7.7 0v-.6c-1.5-.1-1.7-.3-1.7-1.9v-8.1c-1 .4-2.1.7-3.3.9v.6c1.4.2 1.5.3 1.5 1.8v4.8c0 1.6-.2 1.7-1.6 1.9v.6h5.1zm-2.8-12.6c.7 0 1.2-.6 1.2-1.2 0-.7-.5-1.2-1.2-1.2-.6 0-1.2.5-1.2 1.2.1.7.6 1.2 1.2 1.2m-8.9 3c1.3 0 2.1 1.1 2.1 2.4 0 .3-.1.5-.6.5-1.4 0-2.7.1-4 .1.4-2.1 1.4-3 2.5-3m3.6 7.2c-.8.8-1.7 1.2-2.7 1.2-1.6 0-3.5-1.3-3.5-4.5 2.8-.1 5.7-.3 6.1-.4.4-.1.5-.3.5-.8 0-1.8-1.6-3.6-3.5-3.6-1.2 0-2.5.6-3.5 1.7s-1.6 2.5-1.6 4.1c0 2.7 1.7 5 4.6 5 .7 0 2.4-.4 3.8-2.3l-.2-.4zm-10.2 1.6l-.2-.6c-.3.2-.9.4-1.5.4s-1.4-.4-1.4-2.3v-6h2.5c.3-.2.4-.7.1-.9H149v-3.2h-.3l-1.5 1.6v1.7H146l-.6.7.1.2h1.6v6.8c0 1.9.8 2.8 2.3 2.8.2 0 .6-.1 1-.3l1.6-.9zm-16.2-8c.4-.3 1.2-.4 1.8-.4 2 0 3.6 1.6 3.6 4.2 0 2.7-1.2 4.4-3.2 4.4-1.2 0-2-.8-2.1-1.3-.1-.2-.1-.4-.1-.8v-6.1zm0-.7v-7.2c-.9.3-2.3.7-3.4.8v.5c1.5.1 1.6.3 1.6 1.7v13.1c1.3.6 2.5.8 3.5.8 3.2 0 5.9-2.4 5.9-5.9 0-2.8-2.1-4.9-4.6-4.9-.3 0-.6.1-1 .2l-2 .9zm-11.2 3h-4.3c.7-1.9 1.5-4 2.2-6l2.1 6zm6 6.5v-.7c-1.5-.1-1.8-.4-2.6-2.4-1.5-4.1-3.1-8.6-4.5-12.6l-.7.2-4.9 12.4c-.8 2.1-1.2 2.2-2.6 2.4v.7h5.1v-.7c-1.8-.2-2-.4-1.5-1.9.3-1 .7-2 1-3h5c.5 1.4 1 2.7 1.3 3.6.3.9.1 1.1-1.4 1.3v.7h5.8z"/><path class="st1" d="M389.3 104.4v-1.2c-3.9-.4-4-.6-4.1-5.3l-.4-16.1c-.1-4.6.2-4.7 4.1-5v-1.2h-7.6L371 97.9l-10.2-22.3h-7.3v1.2c4.1.4 4.3.6 3.9 6.4l-.6 9.3c-.4 4.6-.6 6.6-.8 8.1-.3 1.9-1.2 2.4-3.8 2.7v1.2h10.4v-1.2c-2.9-.3-4-.6-4.1-2.8 0-1.8 0-3.7.1-7.4l.7-12.7h.1l10 23.8h.9L381 79.7h.2l.1 18.2c0 4.7-.1 4.9-3.7 5.3v1.2h11.7zm-45.2 0v-1.2c-3.7-.3-4-.5-4-4.3V81c0-3.8.4-4.1 4-4.3v-1.2h-11.8v1.2c3.7.3 4 .5 4 4.3v17.8c0 3.8-.4 4.1-4 4.3v1.2h11.8zm-20.9-7.2c-.6 1.8-1.4 3.3-2.2 4.2-1 1.2-2.2 1.5-5.6 1.5-2.2 0-3.8 0-4.6-.6-.8-.6-1.1-1.5-1.1-3.6v-8.4h4.2c3.9 0 4.2.3 4.8 3.5h1.3v-8.5h-1.3c-.6 3-.8 3.3-4.8 3.3h-4.2V78.5c0-1.3.1-1.4 1.5-1.4h3.4c3.2 0 4.4.3 5 1.2.6 1 1 2 1.4 3.8l1.3-.2c-.1-2.3-.4-5.3-.4-6.4H302v1.2c3.5.3 3.8.4 3.8 4.5v17.7c0 3.6-.4 4-4.4 4.3v1.2H323c.4-1.4 1.3-5.6 1.6-7l-1.4-.2zm-29-21.7h-11.6v1.2c3.5.3 3.8.5 3.8 4.2v7.2h-15.2V81c0-3.7.4-3.9 3.7-4.2v-1.2h-11.5v1.2c3.7.3 4 .5 4 4.2v18c0 3.7-.4 4-3.9 4.2v1.2h11.7v-1.2c-3.7-.3-4-.5-4-4.2v-9h15.2v8.9c0 3.7-.4 4-4.2 4.2v1.2h11.9v-1.2c-3.6-.3-4-.5-4-4.2V81c0-3.7.4-3.9 4-4.2v-1.3zm-37.6 0h-10.5v1.2c3.1.2 4.1.8 4.4 2.8.1 1.2.3 3.3.3 7.4v11h-.1L232 75.5h-6.6v1.2c2.1.2 3.1.5 4 1.6.8 1.1.9 1.2.9 4.5v9.8c0 4.1-.1 6.2-.3 7.6-.2 2.2-1.3 2.8-3.9 2.9v1.2h10.6v-1.2c-3-.2-4.1-.7-4.3-3-.1-1.3-.3-3.4-.3-7.5V81.5h.1l19 23.3h1.4V86.9c0-4.1.1-6.1.3-7.5.2-2 1.2-2.5 3.7-2.7v-1.2zm-37.2 0h-10.5v1.2c3.1.2 4.1.8 4.4 2.8.1 1.2.3 3.3.3 7.4v11h-.1l-18.6-22.4h-6.6v1.2c2.1.2 3.1.5 4 1.6.8 1.1.9 1.2.9 4.5v9.8c0 4.1-.1 6.2-.3 7.6-.2 2.2-1.3 2.8-3.9 2.9v1.2h10.6v-1.2c-3-.2-4.1-.7-4.3-3-.1-1.3-.3-3.4-.3-7.5V81.5h.1l19 23.3h1.4V86.9c0-4.1.1-6.1.3-7.5.2-2 1.2-2.5 3.7-2.7v-1.2zM173.1 92h-8.2c1.3-3.7 2.8-7.5 4.2-11.4h.1l3.9 11.4zm11.3 12.4v-1.2c-2.9-.3-3.5-.7-4.9-4.5-2.9-7.7-5.8-16.2-8.6-23.9l-1.4.4-9.2 23.4c-1.6 3.9-2.2 4.2-5 4.6v1.2h9.7v-1.2c-3.3-.3-3.7-.8-2.8-3.6.6-1.9 1.2-3.7 2-5.7h9.5c1 2.7 1.9 5.1 2.4 6.9.6 1.7.2 2.1-2.6 2.4v1.2h10.9zm-32.6 0v-1.2c-3.9-.4-4-.6-4.1-5.3l-.4-16.1c-.1-4.6.2-4.7 4.1-5v-1.2h-7.6l-10.3 22.3-10.2-22.3H116v1.2c4.1.4 4.3.6 3.9 6.4l-.6 9.3c-.4 4.6-.6 6.6-.8 8.1-.3 1.9-1.2 2.4-3.8 2.7v1.2H125v-1.2c-2.9-.3-4-.6-4.1-2.8 0-1.8 0-3.7.1-7.4l.7-12.7h.1l10 23.8h.9l10.9-24.4h.2l.1 18.2c0 4.7-.1 4.9-3.7 5.3v1.2h11.6zM425.4 43.7c-.2-2.6-.4-5.8-.4-7.9h-.9c-.7.8-1.1 1.1-2.3 1.1h-17.6c-1.2 0-1.8-.1-2.4-1.1h-.9c-.1 2.4-.3 5.3-.5 8h1.3c.5-2 .9-3.2 1.4-4 .6-1 1.5-1.4 5.2-1.4h2.8v21.9c0 3.5-.4 4-4.4 4.2v1.2h12.8v-1.2c-4.2-.3-4.6-.7-4.6-4.2V38.5h3.2c3.3 0 4.1.3 4.8 1.4.5.7.9 1.8 1.4 4l1.1-.2zm-45.3-13.1c-1.2 0-2.1.9-2.1 2.2 0 1.2 1 2.1 2.1 2.1 1.2 0 2.1-1 2.1-2.1 0-1.3-.9-2.2-2.1-2.2m8.4 0c-1.1 0-2.1 1-2.1 2.2 0 1.2 1 2.1 2.1 2.1 1.2 0 2.1-1 2.1-2.1.1-1.3-.9-2.2-2.1-2.2m-1.3 22.8H379c1.3-3.7 2.8-7.5 4.2-11.4h.1l3.9 11.4zm11.3 12.5v-1.2c-2.9-.3-3.5-.7-4.9-4.5-2.8-7.7-5.8-16.2-8.6-23.9l-1.4.4-9.2 23.4c-1.6 3.9-2.2 4.2-5 4.6v1.2h9.7v-1.2c-3.3-.3-3.7-.8-2.8-3.6.6-1.9 1.2-3.7 2-5.7h9.5c1 2.7 1.9 5.1 2.4 6.9.6 1.7.2 2.1-2.6 2.4v1.2h10.9zm-30.7-22.2c-.2-2.6-.4-5.8-.4-7.9h-.9c-.7.8-1.1 1.1-2.3 1.1h-17.6c-1.2 0-1.8-.1-2.4-1.1h-.9c-.1 2.4-.3 5.3-.5 8h1.3c.5-2 .9-3.2 1.4-4 .6-1 1.5-1.4 5.2-1.4h2.8v21.9c0 3.5-.4 4-4.4 4.2v1.2h12.8v-1.2c-4.2-.3-4.6-.7-4.6-4.2V38.5h3.2c3.3 0 4.1.3 4.8 1.4.5.7.9 1.8 1.4 4l1.1-.2zm-31.7 22.2v-1.2c-3.7-.3-4-.5-4-4.3V42.5c0-3.8.4-4.1 4-4.3V37h-11.8v1.2c3.7.3 4 .5 4 4.3v17.8c0 3.8-.4 4.1-4 4.3v1.2h11.8zm-21.6-22.4c-.4-2.8-.6-4.5-.8-6.1-1.7-.5-3.6-1-5.6-1-5.7 0-9.2 3.7-9.2 7.9 0 5 4.5 7.3 7.3 8.8 3.3 1.8 5.8 3.3 5.8 6.6s-2 5.3-5.3 5.3c-4.6 0-6.6-4.5-7.3-7.2l-1.3.3c.3 2.1.8 6 1.2 6.9.4.2 1.1.5 2.2.9 1.1.3 2.5.7 4.4.7 5.9 0 9.9-3.7 9.9-8.4 0-5-4.2-7.1-7.7-8.9-3.5-1.8-5.7-3.3-5.7-6.6 0-2.4 1.5-4.9 4.9-4.9 3.9 0 5 3.1 5.8 5.9l1.4-.2zm-40 8.3v-11c0-1.2.2-1.7.5-2 .4-.3 1.1-.4 2.4-.4 3.4 0 6.5 1.8 6.5 6.6 0 2.4-.7 4.2-2.4 5.5-1.1.9-2.6 1.2-4.9 1.2h-2.1zm18.7 13.3c-1-.3-2-.8-3.2-2.1-1.1-1.2-2-2.3-3.6-4.6-1.3-2-3.2-5-4-6.5 3.3-1.4 5.7-3.8 5.7-7.6 0-2.7-1.2-4.7-2.9-5.8-1.7-1.1-3.9-1.5-7.1-1.5h-11v1.2c3.5.3 3.8.4 3.8 4.2v17.9c0 3.8-.4 4.1-4.1 4.3v1.2h11.7v-1.2c-3.6-.3-4-.5-4-4.3v-7.1h1.4c2.3 0 3.1.5 3.8 1.8 1.3 2.2 2.9 4.9 4.5 7.1 2 2.9 3.9 3.9 7.2 4.1h1.6l.2-1.1zm-34.6-6.4c-.6 1.8-1.4 3.3-2.2 4.2-1 1.2-2.2 1.5-5.6 1.5-2.2 0-3.8 0-4.6-.6-.8-.6-1.1-1.5-1.1-3.6v-8.4h4.2c3.9 0 4.2.3 4.8 3.5h1.3v-8.5h-1.3c-.6 3-.8 3.3-4.8 3.3h-4.2V40c0-1.3.1-1.4 1.5-1.4h3.4c3.2 0 4.4.3 5 1.2.6 1 1 2 1.4 3.8l1.3-.2c-.1-2.3-.4-5.3-.4-6.4h-19.9v1.2c3.5.3 3.8.4 3.8 4.5v17.7c0 3.6-.4 4-4.4 4.3v1.2h21.5c.4-1.4 1.3-5.6 1.6-7l-1.3-.2zM233.9 37h-10v1.2c3.6.4 3.9.8 3 3.3-1.4 4.5-4.8 13.1-7 18.7h-.1c-3-7.7-6.2-16.3-7.4-19.4-.7-2-.5-2.3 2.6-2.6V37h-10.9v1.3c2.6.2 3.3.6 4.6 3.9 2.6 6.5 6.2 16 9.2 24.2h1.4c3.3-9.2 8.1-20.5 9.3-23.4 1.7-4 2.3-4.4 5.3-4.8V37zm-34.2 28.9v-1.2c-3.7-.3-4-.5-4-4.3V42.5c0-3.8.4-4.1 4-4.3V37h-11.8v1.2c3.7.3 4 .5 4 4.3v17.8c0 3.8-.4 4.1-4 4.3v1.2h11.8zM181 37h-10.5v1.2c3.1.2 4.1.8 4.4 2.8.1 1.2.3 3.3.3 7.4v11h-.2L156.5 37h-6.6v1.2c2.1.2 3.1.5 4 1.6.8 1.1.9 1.2.9 4.5v9.8c0 4.1-.1 6.2-.3 7.6-.2 2.2-1.3 2.8-3.9 2.9v1.2h10.6v-1.2c-3-.2-4.1-.7-4.3-3-.1-1.3-.3-3.4-.3-7.5V43h.1l19 23.3h1.4V48.4c0-4.1.1-6.1.3-7.5.2-2 1.2-2.5 3.7-2.7V37zm-35.7 0h-10.6v1.2c3.1.2 4.1.8 4.3 2.5.2 1.4.3 3.3.3 7.3v3.4c0 7.3-2 12.7-8.4 12.7-5.5 0-8.4-4.1-8.4-11.3V42.7c0-4 .4-4.3 3.9-4.5V37h-11.5v1.2c3.5.3 3.9.5 3.9 4.5v11.1c0 5.2 1.2 8.6 3.9 10.6 2 1.5 4.5 2.1 7.1 2.1 2.9 0 5.9-.9 8-3.1 2.6-2.7 3.4-6.5 3.4-11.8v-3.7c0-4.1.1-6 .2-7.2.2-1.8 1.2-2.4 3.9-2.6V37z"/><g><path class="st2" d="M17.7 128.4h74.9v4.5H17.7z"/></g></svg>